<svg width="2339" height="2339" xmlns="http://www.w3.org/2000/svg" xmlns:xlink="http://www.w3.org/1999/xlink" xml:space="preserve" overflow="hidden"><g transform="translate(-68 -68)"><path d="M500.483 123 684.756 123 860.517 123 1238 123 1238 500.471 1238 500.483 1238 680.5 1238 860.517 1238 1238 1238 1238 860.517 1238 684.756 1238 500.483 1238 123 1238 123 860.517 123 680.5 123 500.483C123 292.005 292.005 123 500.483 123Z" stroke="#000000" stroke-width="110" stroke-miterlimit="8" stroke-opacity="0" fill="#414042" fill-rule="evenodd"/><path d="M2352 500.483 2352 684.756 2352 860.517 2352 1238 1974.87 1238 1974.86 1238 1795 1238 1615.14 1238 1238 1238 1238 1238 1238 860.517 1238 684.756 1238 500.483 1238 123 1615.14 123 1795 123 1974.86 123C2183.15 123 2352 292.005 2352 500.483Z" stroke="#000000" stroke-width="110" stroke-miterlimit="8" stroke-opacity="0" fill="#282729" fill-rule="evenodd"/><path d="M1974.86 2352 1790.75 2352 1615.14 2352 1238 2352 1238 1974.87 1238 1974.86 1238 1795 1238 1615.14 1238 1238 1238 1238 1615.14 1238 1790.75 1238 1974.86 1238 2352 1238 2352 1615.14 2352 1795 2352 1974.86C2352 2183.15 2183.15 2352 1974.86 2352Z" stroke="#000000" stroke-width="110" stroke-miterlimit="8" stroke-opacity="0" fill="#414042" fill-rule="evenodd"/><path d="M123 1974.86 123 1790.75 123 1615.14 123 1238 500.132 1238 500.145 1238 680 1238 859.856 1238 1237 1238 1237 1238 1237 1615.14 1237 1790.75 1237 1974.86 1237 2352 859.856 2352 680 2352 500.145 2352C291.853 2352 123 2183.15 123 1974.86Z" stroke="#000000" stroke-width="110" stroke-miterlimit="8" stroke-opacity="0" fill="#282729" fill-rule="evenodd"/><path d="M1712.01 1501.16C1586.1 1469.13 1477.63 1392.98 1344.69 1238.93L1340.27 1233.69 1344.45 1228.88C1472.88 1080.79 1585.26 982.128 1716.08 982.128 1796.87 982.021 1873.04 1019.85 1921.75 1084.28L1792.35 1158.94 2121.34 1247.05 2209.5 918.103 2075.29 995.55C1994.48 876.603 1859.93 805.423 1716.08 805.511 1502.43 805.511 1346.2 957.202 1210.85 1113.18 1075.43 957.047 919.279 805.511 705.633 805.511 468.129 803.808 274.214 994.862 272.512 1232.24 270.81 1469.61 461.965 1663.42 699.469 1665.13 701.526 1665.14 703.581 1665.14 705.633 1665.13 918.572 1665.13 1069.57 1517.65 1210.85 1354.24 1350.97 1516.64 1503.11 1647.86 1716.08 1665.13 1955.23 1684.47 2124.37 1495.99 2125.94 1352.65 2125.94 1352.48 2125.79 1352.34 2125.62 1352.34 2125.5 1352.34 2125.39 1352.42 2125.34 1352.54 2091.39 1455.68 1884.95 1545.09 1712.01 1501.16ZM1077.15 1238.75C940.376 1396.93 835.74 1488.51 705.633 1488.51 565.724 1490.77 450.472 1379.25 448.208 1239.41 445.947 1099.58 557.529 984.388 697.44 982.128 700.172 982.084 702.901 982.084 705.633 982.128 836.512 982.128 948.88 1080.77 1077.33 1228.88L1081.52 1233.69Z" stroke="#478CBF" stroke-width="36.6667" stroke-linecap="round" stroke-linejoin="round" stroke-miterlimit="10" fill="#478CBF" fill-rule="evenodd"/></g></svg>