<svg width="2421" height="2421" xmlns="http://www.w3.org/2000/svg" xmlns:xlink="http://www.w3.org/1999/xlink" xml:space="preserve" overflow="hidden"><g transform="translate(-27 -27)"><path d="M1454.44 172.836 1560.35 278.74 1661.36 379.752 1878.3 596.695 1661.37 813.633 1661.36 813.64 1557.9 917.098 1454.44 1020.56 1237.5 1237.5 1237.5 1237.5 1020.56 1020.56 919.544 919.544 813.64 813.64 596.696 596.696 813.64 379.752 917.098 276.294 1020.56 172.836C1140.37 53.0206 1334.63 53.0206 1454.44 172.836Z" stroke="#000000" stroke-width="110" stroke-miterlimit="8" stroke-opacity="0" fill="#414042" fill-rule="evenodd"/><path d="M2302.17 1454.45 2196.26 1560.35 2095.25 1661.36 1878.31 1878.3 1661.37 1661.37 1661.36 1661.36 1557.9 1557.9 1454.45 1454.44 1237.5 1237.5 1237.5 1237.5 1454.45 1020.56 1555.46 919.544 1661.36 813.64 1878.31 596.696 2095.25 813.641 2198.71 917.099 2302.17 1020.56C2421.98 1140.37 2421.98 1334.63 2302.17 1454.45Z" stroke="#000000" stroke-width="110" stroke-miterlimit="8" stroke-opacity="0" fill="#282729" fill-rule="evenodd"/><path d="M1020.56 2302.17 914.653 2196.26 813.641 2095.25 596.697 1878.31 813.634 1661.37 813.64 1661.36 917.098 1557.9 1020.56 1454.45 1237.5 1237.5 1237.5 1237.5 1454.44 1454.45 1555.46 1555.46 1661.36 1661.36 1878.31 1878.31 1661.36 2095.25 1557.9 2198.71 1454.45 2302.17C1334.63 2421.98 1140.37 2421.98 1020.56 2302.17Z" stroke="#000000" stroke-width="110" stroke-miterlimit="8" stroke-opacity="0" fill="#414042" fill-rule="evenodd"/><path d="M172.834 1020.55 278.738 914.651 379.75 813.639 596.694 596.695 813.631 813.632 813.639 813.639 917.097 917.097 1020.55 1020.55 1237.5 1237.5 1237.5 1237.5 1020.55 1454.44 919.543 1555.46 813.639 1661.36 596.695 1878.3 379.75 1661.36 276.292 1557.9 172.834 1454.44C53.0192 1334.63 53.0191 1140.37 172.834 1020.55Z" stroke="#000000" stroke-width="110" stroke-miterlimit="8" stroke-opacity="0" fill="#282729" fill-rule="evenodd"/><path d="M1653.08 1471.75C1542.13 1443.51 1446.53 1376.38 1329.38 1240.58L1325.49 1235.97 1329.17 1231.73C1442.34 1101.18 1541.39 1014.2 1656.67 1014.2 1727.87 1014.11 1794.99 1047.45 1837.91 1104.25L1723.88 1170.07 2013.81 1247.74 2091.5 957.763 1973.23 1026.04C1902.01 921.18 1783.44 858.432 1656.67 858.51 1468.39 858.51 1330.7 992.23 1211.43 1129.73 1092.09 992.094 954.48 858.51 766.203 858.51 556.9 857.008 386.01 1025.43 384.51 1234.68 383.01 1443.94 551.468 1614.79 760.771 1616.29 762.584 1616.3 764.394 1616.3 766.203 1616.29 953.857 1616.29 1086.93 1486.28 1211.43 1342.23 1334.91 1485.39 1468.99 1601.07 1656.67 1616.29 1867.43 1633.34 2016.48 1467.19 2017.86 1340.83 2017.86 1340.68 2017.73 1340.56 2017.58 1340.56 2017.48 1340.56 2017.38 1340.63 2017.33 1340.73 1987.41 1431.65 1805.48 1510.47 1653.08 1471.75ZM1093.6 1240.42C973.072 1379.87 880.86 1460.59 766.203 1460.59 642.907 1462.59 541.339 1364.28 539.345 1241.01 537.352 1117.74 635.684 1016.2 758.983 1014.2 761.39 1014.16 763.795 1014.16 766.203 1014.2 881.541 1014.2 980.566 1101.16 1093.76 1231.73L1097.46 1235.97Z" stroke="#478CBF" stroke-width="36.6667" stroke-linecap="round" stroke-linejoin="round" stroke-miterlimit="10" fill="#478CBF" fill-rule="evenodd"/></g></svg>